<svg xmlns="http://www.w3.org/2000/svg" width="160" height="160" viewBox="0 0 160 160">
  <rect width="160" height="160" fill="transparent"/>
  <polygon points="80,10 92,38 124,20 108,52 146,48 114,68 148,92 108,88 124,122 92,104 80,150 68,104 36,122 52,88 12,92 46,68 14,48 52,52 36,20 68,38" fill="#f87171"/>
  <polygon points="80,24 90,48 116,34 102,58 132,58 104,72 132,92 102,88 116,118 90,104 80,132 70,104 44,118 58,88 28,92 56,72 28,58 58,58 44,34 70,48" fill="#dc2626"/>
  <circle cx="80" cy="80" r="24" fill="#7f1d1d"/>
</svg>
